<svg width="207" height="147" viewBox="0 0 207 147" fill="none" xmlns="http://www.w3.org/2000/svg">
<g clip-path="url(#clip0_632_2)">
<g clip-path="url(#clip1_632_2)">
<path d="M0.462891 29.4444L29.8334 0.0738525H88.5744L59.2039 29.4444H0.462891Z" fill="#2A2A2A"/>
<path d="M206.052 117.556L176.681 146.926H117.94L147.311 117.556H206.052Z" fill="#2A2A2A"/>
<path d="M117.945 29.4443L88.5742 58.8148L88.5742 117.556L117.945 88.1854L117.945 29.4443Z" fill="#2A2A2A"/>
<path d="M206.054 0.0738513L176.683 29.4444L176.683 88.1854L206.054 58.8149L206.054 0.0738513Z" fill="#2A2A2A"/>
<path d="M29.8378 58.8149L0.467286 88.1855L0.467289 146.926L29.8378 117.556L29.8378 58.8149Z" fill="#2A2A2A"/>
<path d="M117.937 29.4444L147.307 0.0738525H206.048L176.678 29.4444H117.937Z" fill="#2A2A2A"/>
<path d="M88.5791 117.556L59.2086 146.926H0.467561L29.8381 117.556H88.5791Z" fill="#2A2A2A"/>
<path d="M29.8315 58.8148L59.2021 29.4443H117.943L88.5726 58.8148H29.8315Z" fill="#2A2A2A"/>
<path d="M176.683 88.1853L147.313 117.556H88.5716L117.942 88.1853H176.683Z" fill="#2A2A2A"/>
</g>
</g>
<defs>
<clipPath id="clip0_632_2">
<rect width="207" height="147" fill="white"/>
</clipPath>
<clipPath id="clip1_632_2">
<rect width="207" height="147" fill="white"/>
</clipPath>
</defs>
</svg>
